<svg id="visual" viewBox="0 0 900 600" width="900" height="600" xmlns="http://www.w3.org/2000/svg" xmlns:xlink="http://www.w3.org/1999/xlink" version="1.1"><g transform="translate(423.8537363603478 289.26725317748765)"><path d="M77.4 -122.7C100.8 -120.5 120.5 -100.8 125.9 -77.4C131.2 -54 122.1 -27 152.8 17.7C183.6 62.5 254.2 125 259.3 166.6C264.5 208.1 204.3 228.8 150.1 224.9C96 220.9 48 192.5 2.6 188C-42.8 183.5 -85.7 203 -127.8 200C-170 197 -211.4 171.5 -207 134.4C-202.6 97.3 -152.3 48.7 -137.3 8.7C-122.3 -31.3 -142.5 -62.7 -150.5 -105.8C-158.4 -149 -153.9 -204 -126.8 -203.9C-99.7 -203.9 -49.8 -148.8 -11.4 -129C27 -109.3 54 -124.8 77.4 -122.7" fill="#ff0066"></path></g></svg>