<svg id="visual" viewBox="0 0 900 600" width="900" height="600" xmlns="http://www.w3.org/2000/svg" xmlns:xlink="http://www.w3.org/1999/xlink" version="1.1"><path d="M0 73L82 121L164 169L245 151L327 133L409 151L491 133L573 73L655 109L736 67L818 139L900 73L900 0L818 0L736 0L655 0L573 0L491 0L409 0L327 0L245 0L164 0L82 0L0 0Z" fill="#000145"></path><path d="M0 385L82 289L164 253L245 355L327 289L409 331L491 259L573 331L655 313L736 229L818 247L900 187L900 71L818 137L736 65L655 107L573 71L491 131L409 149L327 131L245 149L164 167L82 119L0 71Z" fill="#000765"></path><path d="M0 445L82 415L164 319L245 403L327 397L409 391L491 373L573 409L655 361L736 349L818 343L900 301L900 185L818 245L736 227L655 311L573 329L491 257L409 329L327 287L245 353L164 251L82 287L0 383Z" fill="#000886"></path><path d="M0 553L82 559L164 541L245 565L327 535L409 505L491 517L573 541L655 505L736 541L818 547L900 565L900 299L818 341L736 347L655 359L573 407L491 371L409 389L327 395L245 401L164 317L82 413L0 443Z" fill="#0006a8"></path><path d="M0 601L82 601L164 601L245 601L327 601L409 601L491 601L573 601L655 601L736 601L818 601L900 601L900 563L818 545L736 539L655 503L573 539L491 515L409 503L327 533L245 563L164 539L82 557L0 551Z" fill="#0000cc"></path></svg>